<?xml version="1.0" standalone="no"?>
<!DOCTYPE svg PUBLIC "-//W3C//DTD SVG 20010904//EN"
 "http://www.w3.org/TR/2001/REC-SVG-20010904/DTD/svg10.dtd">
<svg version="1.0" xmlns="http://www.w3.org/2000/svg"
 width="1093.000000pt" height="1280.000000pt" viewBox="0 0 1093.000000 1280.000000"
 preserveAspectRatio="xMidYMid meet">
<metadata>
Created by potrace 1.16, written by Peter Selinger 2001-2019
</metadata>
<g transform="translate(0.000000,1280.000000) scale(0.100000,-0.100000)"
fill="#000000" stroke="none">
<path d="M0 6400 l0 -6401 564 1 563 2 23 30 c12 16 27 27 34 25 7 -3 28 2 47
10 34 15 34 15 10 24 l-24 10 30 32 c31 33 47 73 33 82 -4 3 -10 -5 -14 -17
-3 -15 -9 -19 -15 -13 -12 12 -3 55 10 55 5 0 9 7 9 15 0 8 5 15 10 15 6 0 10
-9 10 -20 0 -11 4 -20 8 -20 16 0 47 28 40 36 -4 4 -3 13 3 20 16 20 -6 26
-48 15 -50 -14 -53 -14 -47 4 4 8 14 15 24 15 10 0 21 7 24 16 7 18 52 15 48
-4 -1 -6 4 -12 12 -12 8 0 16 -6 19 -12 2 -7 8 -9 13 -5 5 4 3 11 -3 15 -7 4
-11 21 -11 38 1 17 -2 36 -6 43 -5 7 1 11 16 11 13 0 30 6 37 13 10 10 15 9
25 -5 7 -10 16 -15 19 -11 12 11 8 31 -9 48 -13 13 -15 22 -6 48 8 27 10 29
12 10 4 -34 4 -37 15 -53 13 -20 9 -88 -5 -105 -7 -8 -9 -22 -6 -31 8 -20 -13
-175 -26 -188 -4 -6 -8 8 -8 32 0 23 -5 42 -11 42 -7 0 -10 -28 -8 -77 1 -43
-2 -90 -6 -105 -6 -23 -4 -28 10 -28 20 0 44 27 45 50 0 8 9 37 19 65 11 27
29 108 42 180 12 72 28 137 36 146 7 8 13 24 13 33 0 38 46 100 75 101 6 0 9
10 7 22 -2 13 5 32 16 43 10 11 25 32 33 47 8 15 23 36 34 48 32 35 67 83 88
123 10 20 28 47 39 59 20 21 38 49 55 83 4 8 16 23 28 32 12 9 28 36 35 60 8
24 17 45 21 48 4 3 14 22 22 43 9 20 21 37 26 37 6 0 31 31 56 69 25 38 52 74
60 81 8 7 15 18 15 26 0 7 14 21 30 31 17 9 30 25 30 34 0 9 17 24 40 34 22
10 40 24 40 32 0 8 5 11 10 8 6 -4 24 -4 40 0 25 5 30 12 30 36 0 16 4 29 9
29 24 0 42 -15 57 -45 18 -39 55 -56 46 -21 -3 11 -9 24 -14 27 -4 3 -5 27 -1
55 6 43 8 45 13 20 7 -41 27 -43 39 -4 5 18 10 25 10 15 1 -17 4 -17 44 5 23
12 50 29 59 37 18 14 19 14 34 -36 6 -23 34 -13 40 15 10 40 34 63 63 60 21
-2 26 1 26 19 1 26 10 37 24 29 7 -5 7 -13 -2 -26 -9 -16 -9 -24 1 -40 6 -11
12 -31 12 -45 0 -33 16 -32 25 2 9 36 43 83 61 83 12 0 19 -14 12 -22 -1 -2 6
-19 16 -38 11 -19 22 -41 26 -49 15 -33 29 -21 29 26 0 26 1 74 3 107 3 56 4
59 31 62 36 4 57 21 57 45 0 11 5 19 11 19 16 0 50 41 43 52 -3 5 1 19 9 31
23 35 88 97 97 92 10 -6 31 42 36 85 3 23 16 46 39 67 19 18 35 41 35 52 0 20
61 66 101 76 18 4 29 15 32 31 5 28 -3 30 -44 8 -17 -8 -33 -13 -36 -10 -11
11 7 37 32 46 14 5 25 14 25 19 0 7 51 31 66 31 12 0 1 -31 -13 -39 -10 -5
-14 -13 -10 -17 6 -6 82 65 78 74 -8 17 4 34 29 38 25 6 29 10 26 34 -2 21 0
27 11 23 8 -3 21 4 29 16 8 11 22 21 30 21 13 0 111 66 141 96 7 7 10 20 7 28
-4 11 0 16 12 16 11 0 32 7 48 15 15 8 35 15 42 15 21 0 17 -21 -6 -27 -18 -5
-37 -39 -27 -49 8 -9 73 40 98 73 27 36 58 51 69 34 4 -7 29 -13 56 -14 27 -1
54 -6 60 -12 11 -10 3 -68 -15 -103 -23 -45 -41 -94 -41 -111 0 -20 -27 -78
-40 -86 -5 -3 -7 -12 -4 -19 3 -8 -4 -33 -15 -57 -12 -23 -21 -51 -21 -61 0
-10 -4 -18 -9 -18 -5 0 -12 -13 -16 -30 -4 -16 -11 -30 -16 -30 -5 0 -9 -5 -9
-12 0 -30 -34 -99 -46 -94 -7 3 -11 0 -8 -7 5 -13 -165 -358 -190 -387 -16
-17 -56 -99 -56 -113 0 -5 -18 -46 -40 -92 -44 -91 -100 -225 -100 -238 0 -12
-71 -186 -115 -282 -44 -95 -172 -487 -189 -575 -3 -14 -8 -41 -11 -60 -9 -47
40 86 55 152 7 29 16 58 20 63 7 10 53 156 66 210 4 17 13 39 19 50 7 11 40
92 74 180 84 215 180 410 181 366 0 -22 -32 -135 -41 -145 -5 -6 -9 -29 -9
-52 0 -23 -7 -58 -16 -79 -8 -20 -13 -40 -10 -43 9 -8 11 -3 32 71 10 38 24
68 29 68 12 -1 15 -48 5 -99 -3 -21 -3 -64 1 -97 4 -38 7 -47 7 -25 3 51 33
242 42 265 14 33 21 85 25 168 4 79 46 217 66 217 19 0 24 -2 21 -11 -1 -5 2
-9 6 -9 4 0 14 16 21 36 10 27 10 38 2 44 -9 5 -8 10 3 19 8 7 17 25 21 40 3
16 17 39 31 51 13 13 24 33 24 45 0 12 11 37 24 56 14 19 32 49 42 66 9 18 20
33 24 33 4 0 11 11 14 25 4 14 11 25 16 25 6 0 10 10 10 21 0 32 -87 -66 -100
-112 -6 -21 -17 -40 -26 -43 -8 -3 -13 -2 -12 2 48 98 95 186 110 201 10 11
18 24 18 29 0 4 11 23 25 42 14 19 25 30 25 24 0 -5 11 14 24 41 29 60 33 36
7 -40 -10 -29 -17 -56 -15 -58 3 -3 0 -33 -6 -68 -6 -35 -12 -84 -14 -109 -2
-25 -11 -142 -19 -260 -17 -230 -25 -287 -38 -296 -5 -3 -9 -21 -9 -40 0 -39
-62 -393 -85 -489 -8 -33 -29 -123 -46 -200 -29 -129 -101 -366 -119 -390 -4
-5 -13 -28 -20 -49 -7 -22 -26 -63 -43 -90 -34 -58 -117 -221 -117 -230 0 -3
20 -6 45 -6 43 0 45 1 56 40 7 22 15 40 19 40 4 0 10 12 13 28 3 15 16 50 28
77 13 28 23 57 24 67 1 9 18 58 38 110 20 51 46 125 58 163 12 39 30 89 41
113 10 24 21 57 25 73 3 16 9 29 14 29 5 0 9 9 9 20 0 23 21 117 50 225 42
157 74 396 90 665 5 91 14 181 19 200 12 43 17 76 31 210 12 114 25 167 73
302 21 59 34 84 40 75 5 -8 7 -3 5 13 -3 15 3 33 14 44 16 17 18 18 18 3 0 -9
-5 -17 -11 -17 -6 0 -8 -11 -4 -29 4 -19 1 -34 -9 -44 -17 -16 -21 -37 -8 -37
4 0 21 16 37 36 17 20 49 56 72 80 43 46 69 89 38 64 -9 -7 -18 -10 -22 -6 -9
9 47 66 75 77 13 5 20 13 17 19 -3 5 0 7 8 4 11 -4 12 -13 4 -42 -10 -40 9
-112 22 -82 3 8 14 27 24 42 l18 26 55 -25 c51 -23 61 -24 142 -17 227 21 402
-12 493 -92 8 -8 20 -14 25 -14 24 -2 134 -201 172 -315 12 -33 35 -100 52
-150 17 -49 35 -112 40 -140 11 -63 23 -106 50 -175 79 -204 123 -327 145
-405 31 -111 40 -133 48 -112 5 15 -11 79 -33 132 -5 11 -11 34 -15 50 -18 91
-27 122 -50 185 -14 39 -37 102 -51 141 -14 40 -23 80 -21 90 3 11 1 19 -4 19
-5 0 -9 9 -9 19 0 11 -4 23 -10 26 -5 3 -10 20 -10 37 0 16 -18 76 -41 131
-22 56 -52 136 -65 177 -13 42 -38 102 -56 135 -39 73 -176 211 -239 242 -75
37 -185 53 -359 52 -171 -1 -212 8 -218 49 -2 12 1 22 7 22 6 0 11 7 11 15 0
8 7 15 15 15 9 0 31 16 51 36 33 35 36 36 61 23 21 -11 27 -11 30 -1 3 6 9 12
15 12 6 0 7 -7 4 -16 -5 -14 -1 -15 30 -10 41 8 97 -1 89 -14 -3 -5 -17 -5
-31 0 -33 13 -54 13 -54 0 0 -5 16 -10 35 -10 19 0 35 -4 35 -10 0 -5 14 -10
30 -10 20 0 30 5 30 15 0 10 10 15 30 15 35 0 40 -15 8 -25 l-23 -7 25 -7 c30
-9 43 -4 36 14 -3 8 1 18 7 24 14 11 177 18 193 8 6 -3 30 11 54 33 24 22 57
42 74 46 17 3 43 15 58 25 15 11 46 26 69 34 23 9 48 20 55 26 23 19 87 50
139 67 43 15 91 17 360 14 276 -3 328 -1 472 19 90 12 166 20 169 17 15 -15
-10 -46 -54 -67 -26 -13 -41 -26 -34 -28 7 -3 18 0 25 5 7 6 19 7 26 3 11 -7
10 -14 -4 -35 -10 -14 -22 -26 -29 -26 -6 0 -4 -5 4 -10 12 -8 -9 -32 -105
-126 -66 -63 -155 -144 -197 -179 -77 -62 -181 -154 -262 -228 -22 -22 -75
-66 -116 -100 -41 -34 -77 -64 -80 -67 -3 -3 -27 -23 -54 -45 -62 -50 -118
-105 -106 -105 5 0 15 7 24 15 8 8 17 15 20 15 15 0 276 198 276 210 0 5 10
12 23 16 12 4 31 15 42 25 11 10 40 35 64 56 24 21 58 53 75 72 17 19 36 38
41 42 54 44 167 145 194 173 19 20 38 36 43 36 6 0 24 11 40 25 16 14 33 23
38 20 4 -3 13 2 20 10 7 8 23 15 36 15 17 0 28 8 37 27 6 16 17 32 24 36 33
21 67 56 61 63 -5 4 -17 -1 -28 -11 -11 -10 -20 -13 -20 -7 0 6 10 17 23 23
12 7 28 19 35 28 12 14 13 13 9 -7 -6 -25 5 -29 23 -7 15 18 76 56 94 59 8 1
21 8 30 15 8 7 19 10 24 7 8 -5 24 -51 38 -111 l7 -30 7 32 c7 33 35 83 46 83
12 0 64 -35 64 -43 0 -15 -38 -82 -62 -108 -12 -15 -34 -30 -47 -34 -12 -4
-39 -18 -58 -31 -20 -13 -41 -24 -47 -25 -6 0 0 -5 13 -10 16 -6 28 -6 38 2 7
7 17 8 21 4 4 -4 1 -10 -7 -13 -15 -5 -29 -19 -88 -88 -23 -27 -51 -60 -62
-73 -12 -13 -21 -27 -21 -30 0 -3 -15 -22 -33 -41 -18 -19 -48 -55 -67 -80
-19 -25 -68 -79 -107 -120 -40 -41 -73 -77 -73 -81 0 -4 -6 -14 -13 -21 -16
-16 -138 -174 -194 -249 -43 -59 -69 -92 -91 -115 -18 -19 -109 -178 -117
-206 -5 -14 9 -2 36 32 24 30 68 79 97 109 28 30 52 59 52 64 0 5 23 37 51 70
28 34 54 67 56 74 3 7 11 13 17 13 7 0 21 16 32 35 10 19 25 35 32 35 7 0 10
5 7 10 -3 6 0 10 7 10 7 0 26 23 41 50 16 28 35 50 43 50 11 0 14 6 9 23 -4
16 -4 18 3 8 8 -11 14 -8 28 15 11 16 49 58 87 95 37 37 67 71 67 78 0 6 9 16
20 23 12 7 42 40 68 73 25 33 52 65 58 70 6 6 14 21 17 35 9 37 81 115 97 105
9 -5 11 -4 6 3 -5 8 0 12 13 12 16 0 19 -5 16 -30 -6 -46 8 -29 40 47 36 84
68 118 124 127 38 6 50 3 92 -25 27 -17 49 -35 49 -40 0 -5 4 -9 10 -9 5 0 27
-17 48 -37 22 -21 46 -42 54 -48 37 -27 104 -91 115 -109 7 -12 10 -28 8 -36
-4 -14 34 -40 59 -40 14 0 76 -50 76 -61 0 -14 42 -48 59 -49 11 0 9 -4 -5
-15 -19 -15 -19 -15 0 -30 17 -13 21 -13 32 3 14 18 19 11 26 -33 2 -11 11
-29 21 -39 9 -11 17 -26 17 -33 0 -7 -8 -13 -17 -13 -10 0 -25 -4 -33 -10 -12
-8 -12 -10 4 -16 10 -4 21 -2 25 4 9 15 51 4 51 -13 0 -7 7 -15 15 -19 20 -7
20 -62 0 -70 -8 -3 -22 -3 -30 0 -8 4 -15 1 -15 -5 0 -6 7 -11 15 -11 28 0 95
-32 95 -46 0 -19 17 -18 28 2 7 12 13 6 29 -28 48 -98 83 -195 78 -210 -4 -9
1 -28 11 -43 14 -21 15 -31 5 -51 -6 -14 -11 -27 -11 -29 0 -2 23 -2 51 1 45
4 51 2 56 -16 3 -11 9 -20 14 -20 5 0 9 -6 9 -14 0 -7 17 -49 39 -92 21 -44
44 -107 49 -142 6 -34 18 -72 27 -84 8 -13 15 -30 15 -40 0 -10 9 -38 21 -63
12 -26 18 -52 14 -64 -3 -12 -2 -21 3 -21 6 0 15 -12 21 -28 7 -15 20 -43 31
-62 10 -19 19 -43 20 -52 0 -10 6 -18 14 -18 24 0 39 28 32 60 -5 27 -3 30 22
30 43 0 49 -11 55 -90 8 -113 24 -232 35 -260 7 -18 6 -33 -4 -51 -7 -14 -18
-47 -25 -73 -6 -25 -15 -49 -20 -52 -13 -7 -11 -80 3 -125 10 -35 14 -39 45
-39 39 0 41 -7 8 -39 -30 -28 -32 -41 -5 -41 12 0 20 -7 20 -17 0 -33 -12 -63
-25 -63 -11 0 -25 -80 -25 -141 0 -18 36 -19 1120 -19 l1120 0 0 6400 0 6400
-5465 0 -5465 0 0 -6400z m3444 5778 c-65 -131 -122 -216 -211 -317 l-32 -36
1 33 c1 19 -5 38 -13 43 -11 7 -12 12 -2 28 7 11 15 38 19 59 4 25 18 52 38
73 23 24 36 51 45 92 9 43 17 57 30 57 10 0 27 11 39 25 23 27 37 31 47 15 11
-18 30 -10 55 24 44 61 35 6 -16 -96z m-790 10 c8 -13 19 -49 26 -81 10 -51
10 -61 -6 -85 -10 -15 -18 -29 -17 -32 8 -41 10 -111 3 -95 -7 16 -9 12 -9
-20 0 -31 2 -36 9 -20 6 13 9 15 9 5 1 -29 -15 -43 -35 -30 -22 13 -64 99 -64
129 0 14 -9 21 -32 26 -53 12 -57 20 -57 103 1 78 7 92 42 92 10 0 25 7 33 15
24 24 81 19 98 -7z m376 -640 c29 -18 48 -21 107 -19 70 2 72 1 112 -35 34
-30 46 -35 69 -29 15 3 38 8 51 9 13 1 28 10 33 19 12 23 40 21 68 -3 13 -11
27 -20 31 -20 4 0 35 -27 68 -61 60 -60 62 -61 92 -49 32 14 125 8 142 -9 5
-5 39 -7 76 -4 99 7 140 -5 172 -52 28 -42 47 -51 124 -66 68 -12 105 -29 105
-46 0 -18 -60 -43 -104 -43 -46 0 -86 -16 -86 -35 0 -13 15 -14 103 -9 85 6
108 4 135 -10 28 -14 31 -19 22 -37 -9 -16 -6 -26 15 -51 32 -38 28 -78 -10
-118 l-25 -26 30 -29 c35 -34 39 -70 9 -86 l-21 -11 25 -26 c41 -45 60 -82 59
-115 -1 -37 -32 -67 -70 -67 -14 0 -46 -10 -71 -22 l-45 -22 26 -11 c68 -27
87 -77 44 -120 -19 -19 -25 -39 -31 -95 l-7 -71 -50 -25 c-47 -24 -55 -25
-158 -18 -143 9 -152 5 -107 -46 33 -35 41 -58 49 -130 3 -25 3 -24 23 8 22
37 125 110 202 144 26 11 77 43 112 70 56 44 68 50 99 45 19 -4 43 -2 53 4 21
11 25 -1 7 -19 -9 -9 -9 -12 -1 -12 7 0 18 8 25 18 22 32 51 42 73 26 30 -22
52 -17 58 13 3 16 0 31 -6 35 -7 4 5 8 26 8 36 0 38 2 37 28 -5 70 -2 77 40
90 56 17 116 16 124 -3 3 -8 15 -15 27 -15 14 0 19 5 16 15 -7 16 8 30 17 17
9 -16 83 -6 118 15 18 11 39 18 46 16 6 -3 12 0 12 6 0 6 18 11 40 11 22 0 40
5 40 10 0 6 23 10 51 10 31 0 48 -4 44 -10 -8 -12 27 -13 41 -1 5 5 33 6 61 2
29 -4 56 -5 60 -1 19 15 147 33 243 34 99 1 108 3 150 31 l45 30 168 -3 c142
-2 168 0 173 13 8 19 44 20 44 0 0 -18 40 -20 40 -2 0 6 9 1 20 -13 17 -22 22
-23 40 -12 11 7 20 9 20 5 0 -5 12 -9 27 -10 24 -1 121 -40 133 -53 3 -4 21
-12 40 -20 19 -8 48 -26 63 -40 16 -13 35 -25 42 -25 7 0 30 -14 50 -32 20
-18 42 -30 49 -27 8 3 23 -6 34 -20 11 -14 22 -26 25 -26 3 0 31 -25 63 -56
32 -30 70 -58 84 -61 14 -2 34 -17 44 -32 11 -15 36 -35 57 -44 22 -9 39 -22
39 -28 0 -15 30 -38 50 -39 14 0 44 -40 62 -83 4 -10 21 -23 38 -28 34 -12 40
-29 10 -29 -11 0 -19 -3 -19 -7 5 -29 -6 -53 -39 -89 -44 -50 -76 -63 -90 -38
-9 16 -11 16 -26 1 -9 -9 -16 -20 -15 -24 4 -24 -3 -25 -20 -4 -27 35 -56 21
-67 -31 -10 -46 -32 -62 -41 -29 -7 28 -23 17 -23 -17 0 -32 -14 -57 -27 -49
-5 4 -20 -11 -31 -32 -12 -22 -29 -41 -37 -45 -8 -3 -15 -16 -15 -28 0 -13 -7
-34 -16 -47 -13 -18 -14 -28 -6 -46 6 -13 9 -34 6 -46 -2 -13 -2 -18 2 -11 9
20 27 14 21 -8 -3 -11 -1 -18 4 -14 5 3 9 -6 9 -20 0 -14 4 -28 10 -31 13 -8
67 49 73 77 3 17 5 14 6 -10 0 -18 10 -43 22 -55 l21 -22 -4 33 c-3 17 -1 32
4 32 4 0 8 -4 8 -9 0 -5 7 -12 16 -15 12 -4 15 -2 10 9 -5 14 9 20 42 16 6 -1
12 6 12 15 0 17 1 17 13 0 12 -16 14 -16 26 -2 8 9 19 16 26 16 17 0 75 33 75
43 0 4 5 7 10 7 6 0 21 11 34 25 14 15 34 25 50 25 41 0 144 38 167 61 18 18
28 20 76 14 31 -4 74 -15 97 -25 42 -18 116 -81 116 -98 0 -5 6 -15 14 -21 9
-8 14 -31 13 -69 0 -31 7 -79 16 -105 9 -26 17 -52 17 -57 0 -13 -107 -13
-115 0 -3 6 -17 10 -31 10 -14 0 -34 5 -45 11 -11 5 -32 12 -47 14 -15 2 -53
14 -85 25 -41 16 -68 20 -90 15 -18 -4 -68 -9 -112 -11 -81 -3 -134 -22 -171
-58 -14 -15 -15 -19 -3 -26 10 -7 7 -11 -14 -19 -16 -6 -33 -11 -38 -11 -6 0
-8 -8 -5 -18 4 -10 -4 -28 -18 -44 -16 -17 -23 -33 -19 -47 4 -14 0 -23 -13
-27 -47 -15 -82 -39 -104 -71 -13 -20 -33 -40 -45 -45 -17 -7 -20 -16 -17 -49
2 -21 8 -39 13 -39 5 0 9 -5 9 -10 0 -7 -7 -7 -21 0 -11 7 -23 9 -26 6 -3 -3
-1 -43 6 -88 6 -46 14 -101 17 -124 5 -33 11 -43 37 -54 18 -7 35 -15 40 -18
4 -2 7 7 7 20 0 18 2 20 10 8 6 -9 6 -18 0 -24 -16 -16 -12 -49 5 -42 10 3 15
-1 15 -13 0 -16 38 -61 50 -59 14 4 59 -36 64 -55 4 -18 17 -25 63 -35 31 -6
59 -8 62 -3 4 4 16 11 29 15 16 6 22 3 22 -8 0 -9 -8 -16 -19 -16 -10 0 -25
-7 -32 -17 -13 -15 -11 -16 15 -9 17 4 35 14 41 23 9 12 21 14 49 9 29 -6 43
-3 57 10 17 15 19 15 25 0 5 -13 23 -16 113 -16 78 1 111 5 126 16 12 9 30 12
47 8 20 -4 30 -1 34 10 3 9 16 16 28 16 40 0 95 21 126 47 30 25 34 25 80 15
51 -12 110 -1 110 20 0 6 16 7 40 3 33 -6 40 -4 40 9 0 9 6 16 13 16 7 0 18 9
25 20 15 24 46 15 100 -30 20 -17 40 -30 45 -30 14 0 -4 44 -25 61 -18 14 -19
19 -8 39 12 23 11 35 -11 168 -9 52 -15 65 -35 72 -13 5 -24 16 -24 25 0 8 -8
15 -17 15 -21 0 -43 -42 -37 -68 3 -9 -5 -27 -16 -40 -17 -18 -25 -21 -36 -11
-8 6 -14 19 -14 29 0 19 33 53 43 44 12 -12 19 66 7 81 -14 17 -6 62 17 87 10
11 13 26 8 47 -5 25 -13 32 -41 37 -19 3 -38 3 -42 -1 -8 -8 28 -36 38 -30 4
3 10 -6 12 -20 6 -27 -9 -34 -19 -9 -5 13 -7 13 -14 2 -6 -9 -12 -4 -21 20 -7
18 -18 30 -25 28 -7 -3 -21 6 -32 20 -18 23 -19 28 -6 41 8 8 15 19 15 24 0
26 26 36 79 29 53 -7 74 -22 64 -46 -3 -8 5 -18 18 -23 99 -38 204 -300 216
-537 7 -139 3 -160 -27 -144 -16 8 -24 6 -41 -11 -11 -11 -27 -18 -35 -15 -8
3 -14 1 -14 -4 0 -6 4 -10 9 -10 7 0 22 -48 20 -66 0 -4 4 -10 9 -13 12 -8 42
-66 42 -82 0 -6 14 -27 30 -46 23 -25 30 -44 30 -73 0 -22 4 -40 9 -40 5 0 7
-9 4 -20 -3 -12 0 -20 7 -20 18 0 4 -60 -17 -75 -19 -14 -11 -45 13 -45 13 0
15 -9 12 -48 -2 -28 2 -55 9 -63 7 -8 17 -46 23 -83 6 -38 17 -84 25 -103 17
-40 20 -103 5 -103 -5 0 -10 -18 -10 -40 0 -33 3 -40 20 -40 14 0 20 -7 20
-22 1 -74 21 -219 36 -253 19 -47 25 -82 24 -152 -1 -29 3 -53 8 -53 23 0 52
-248 33 -283 -14 -27 -1 -82 20 -82 14 0 29 -14 29 -27 0 -5 -7 -8 -15 -8 -17
0 -20 -16 -4 -25 7 -5 8 -25 4 -56 -5 -32 -3 -49 4 -49 5 0 13 -17 16 -37 3
-21 10 -46 16 -55 6 -12 6 -18 -1 -18 -18 0 -11 -30 8 -31 16 -1 16 -2 0 -6
-10 -2 -19 -10 -19 -16 -4 -33 4 -113 12 -123 5 -6 2 -19 -7 -32 -14 -20 -13
-24 12 -49 22 -22 25 -30 15 -45 -16 -26 -14 -38 8 -38 26 0 34 -15 37 -70 5
-84 10 -107 28 -125 12 -12 14 -20 7 -25 -6 -3 -12 -34 -12 -68 -1 -45 -6 -69
-20 -86 -10 -13 -19 -37 -19 -53 0 -17 -8 -33 -20 -41 -12 -7 -20 -23 -20 -38
0 -16 -7 -28 -18 -31 -10 -2 -22 -14 -27 -26 -6 -12 -19 -23 -30 -25 -21 -4
-85 -66 -85 -82 0 -5 -11 -12 -25 -16 -14 -3 -32 -18 -41 -33 -11 -19 -33 -32
-79 -46 -35 -10 -63 -23 -62 -29 1 -5 -11 -14 -28 -19 -53 -17 -148 -66 -202
-104 -17 -13 -43 -23 -57 -23 -14 0 -26 -3 -26 -8 0 -7 -49 -26 -110 -42 -19
-5 -50 -16 -68 -25 -18 -9 -39 -14 -47 -12 -7 3 -16 -1 -19 -9 -3 -8 -19 -14
-41 -14 -19 0 -35 -4 -35 -9 0 -6 -21 -13 -47 -16 -27 -3 -59 -11 -73 -18 -32
-14 -38 -15 -140 -24 -59 -6 -84 -12 -82 -21 1 -6 1 -12 0 -13 -18 -5 -211
-21 -348 -28 -96 -5 -188 -14 -205 -21 -20 -8 -115 -12 -295 -11 -356 0 -330
-1 -330 16 0 19 -105 22 -114 3 -5 -10 -7 -10 -12 0 -3 6 -12 12 -20 12 -8 0
-14 4 -14 9 0 6 -21 12 -47 16 -27 3 -61 10 -78 16 -104 36 -190 49 -197 29
-3 -10 -68 8 -78 22 -3 4 -28 12 -55 18 -63 13 -105 30 -105 41 0 5 -18 9 -40
9 -28 0 -40 4 -40 14 0 8 -22 27 -49 43 -28 15 -54 37 -60 50 -6 12 -25 30
-43 39 -18 9 -37 23 -41 30 -6 11 -13 12 -28 4 -14 -8 -19 -7 -19 2 -1 15 -34
58 -46 58 -13 0 -33 35 -34 58 0 26 -15 29 -24 5 -5 -13 -9 -14 -19 -3 -9 10
-9 13 1 17 18 7 16 83 -3 83 -11 0 -15 -11 -15 -40 0 -22 -4 -40 -10 -40 -5 0
-10 13 -10 29 0 16 -6 36 -13 43 -8 7 -19 23 -26 36 -6 12 -18 22 -26 22 -8 0
-15 7 -15 15 0 8 -4 15 -8 15 -11 0 -33 71 -25 83 3 5 -10 7 -35 2 l-40 -6 -7
80 c-6 69 -10 81 -25 81 -15 0 -20 -9 -23 -42 -2 -24 -4 -6 -5 40 -1 47 -6 82
-12 82 -5 0 -10 18 -10 40 0 22 -4 40 -10 40 -18 0 -10 19 15 36 24 16 27 15
44 -1 18 -16 20 -16 29 2 6 10 8 39 5 65 -3 26 -2 85 2 132 6 76 9 86 26 86
23 0 25 18 4 26 -8 4 -15 14 -15 24 0 11 -4 22 -10 25 -14 8 -13 67 2 102 11
27 12 27 15 6 3 -15 12 -23 24 -23 16 0 19 7 19 40 0 31 -4 40 -17 40 -9 0
-29 11 -43 25 -24 23 -30 25 -54 14 -25 -12 -29 -10 -57 20 -23 26 -32 48 -42
109 l-12 77 -7 -60 c-3 -33 -14 -91 -23 -130 -9 -38 -19 -83 -22 -100 -3 -16
-10 -36 -15 -42 -14 -18 -250 -18 -278 -1 -28 18 -34 5 -21 -47 12 -48 0 -85
-27 -85 -7 0 -26 -14 -42 -30 -26 -27 -36 -30 -88 -30 -77 0 -145 34 -228 116
-62 60 -94 114 -109 182 -6 31 7 96 37 177 6 17 13 53 15 80 3 28 9 54 14 59
8 9 3 113 -7 145 -4 11 -8 11 -23 -3 -21 -19 -31 -12 -31 21 0 16 -6 23 -20
23 -23 0 -23 -1 -10 -55 5 -22 14 -69 20 -104 10 -60 10 -64 -11 -79 -15 -11
-41 -15 -83 -13 -60 3 -60 2 -43 -17 16 -18 23 -35 26 -64 1 -4 11 -16 23 -28
15 -14 17 -20 7 -19 -8 0 -41 32 -74 71 -33 39 -66 76 -72 83 -7 8 -13 16 -13
19 0 3 -22 34 -50 68 -34 42 -64 67 -95 81 -32 14 -42 23 -33 28 9 6 5 9 -12
10 -14 0 -19 3 -12 6 6 2 12 11 12 19 0 8 5 14 11 14 7 0 -1 10 -17 22 -16 12
-57 51 -91 87 -34 36 -64 63 -66 60 -1 -2 -8 -15 -15 -29 -7 -14 -28 -50 -46
-80 -21 -33 -42 -85 -51 -130 -10 -41 -24 -89 -33 -107 -15 -31 -19 -33 -64
-33 -55 0 -60 -8 -19 -32 26 -14 30 -14 33 -1 2 12 10 10 41 -11 27 -18 37
-21 37 -11 0 20 46 3 86 -33 18 -15 42 -36 55 -47 13 -11 72 -46 132 -78 80
-43 113 -56 132 -51 15 4 25 2 25 -4 0 -6 -21 -14 -47 -18 -27 -4 -66 -13 -88
-21 -65 -22 -176 -28 -200 -9 -15 12 -16 15 -5 16 13 0 13 1 0 10 -21 14 -30
12 -24 -4 5 -13 2 -13 -19 -3 -14 6 -23 15 -21 18 6 11 54 17 54 8 0 -5 14 -9
32 -9 42 0 27 13 -42 35 -30 10 -79 31 -107 47 -29 15 -78 42 -109 58 -113 61
-144 94 -153 164 l-6 40 -68 11 -68 11 -15 -35 c-8 -19 -13 -44 -12 -55 2 -15
-2 -21 -14 -20 -10 0 -33 1 -52 2 -19 1 -42 10 -52 20 -9 9 -47 31 -83 49 -53
26 -68 30 -76 19 -21 -27 -48 -162 -41 -201 l7 -38 26 36 c14 20 34 39 44 42
11 4 19 13 19 21 0 22 48 17 61 -7 11 -21 11 -20 30 11 19 30 22 31 81 29 39
-2 63 2 66 9 2 7 10 5 23 -6 21 -18 25 -65 9 -106 -5 -15 -6 -26 -1 -26 5 0
12 13 16 29 7 32 44 56 74 48 11 -3 22 0 24 7 3 6 17 -1 36 -18 17 -17 31 -27
31 -23 0 4 14 1 30 -8 29 -15 39 -42 21 -60 -8 -10 -43 -108 -38 -109 1 -1 13
-7 26 -14 17 -10 26 -11 34 -3 17 17 64 13 128 -10 51 -19 59 -25 59 -48 0
-23 -19 -86 -41 -136 -18 -42 -39 -108 -39 -126 0 -11 17 -31 40 -47 41 -28
50 -42 26 -42 -14 0 -36 20 -125 113 -24 25 -58 53 -75 61 -19 10 -24 16 -13
16 9 0 17 2 17 5 0 9 -25 60 -32 66 -4 3 -19 27 -32 55 l-25 49 -17 -42 c-9
-24 -21 -43 -26 -43 -10 0 -11 -30 0 -31 4 0 15 -2 25 -4 13 -2 17 1 13 12 -3
8 -3 27 1 41 7 26 7 25 14 -13 4 -22 3 -44 -2 -50 -6 -6 -1 -16 13 -28 l23
-19 -25 5 c-14 3 -46 11 -71 19 l-46 15 -47 -63 c-25 -34 -46 -67 -46 -73 0
-11 -52 -5 -82 10 -32 17 -36 10 -24 -39 7 -26 18 -58 25 -69 14 -27 15 -80 1
-88 -6 -3 -10 -13 -10 -22 0 -13 3 -13 15 -3 11 9 15 10 15 1 0 -8 8 -10 19
-6 14 4 23 0 31 -15 6 -12 18 -19 25 -16 17 6 55 -51 48 -71 -4 -11 -9 -10
-19 5 -7 11 -37 31 -66 45 -84 40 -98 60 -115 174 -8 54 -12 109 -9 123 5 26
-13 60 -32 60 -5 0 -24 -24 -40 -52 -16 -29 -52 -78 -78 -109 -48 -54 -87
-106 -149 -195 -16 -24 -38 -46 -48 -49 -10 -4 -29 -17 -44 -31 -29 -27 -53
-30 -83 -12 -16 10 -23 9 -44 -11 -28 -26 -52 -23 -93 12 -38 34 -59 75 -78
157 -10 41 -22 83 -27 93 -4 9 -13 26 -18 37 -5 11 -10 28 -10 38 0 11 -11 34
-25 53 -13 19 -29 44 -35 57 -8 20 -13 21 -32 11 -13 -6 -31 -21 -40 -32 -15
-20 -19 -21 -53 -8 -36 13 -39 12 -81 -18 -25 -17 -51 -31 -60 -31 -8 0 -19
-11 -24 -25 -12 -32 -28 -32 -40 -1 -5 13 -13 27 -19 30 -15 10 -45 126 -80
306 -33 173 -38 220 -21 220 6 0 10 6 10 14 0 8 6 16 13 19 9 3 9 7 -1 19 -10
13 -10 17 0 21 10 4 10 8 -2 16 -21 15 -99 4 -209 -30 -104 -32 -188 -38 -197
-14 -4 8 1 34 10 56 14 35 15 45 3 63 -32 51 -41 104 -27 159 7 29 19 64 26
79 8 15 14 37 14 49 0 12 7 31 16 41 14 15 15 20 3 35 -12 14 -12 16 1 11 17
-6 72 22 78 40 6 18 -53 15 -72 -3 -8 -8 -19 -15 -25 -15 -5 0 -14 -8 -20 -17
-8 -14 -12 -15 -22 -6 -9 10 -8 26 9 75 11 35 18 65 15 68 -3 3 -8 -1 -10 -7
-8 -24 -49 -14 -71 17 -13 17 -29 30 -37 30 -8 0 -15 3 -15 8 0 4 -17 18 -38
32 -55 37 -64 51 -45 73 15 16 15 19 -6 38 -12 12 -20 28 -17 36 3 8 6 19 6
24 0 5 32 40 70 78 39 38 70 74 70 80 0 10 -6 12 -42 15 -7 1 -25 14 -40 30
-14 15 -31 25 -37 22 -6 -4 -23 4 -38 18 -15 15 -33 26 -40 26 -7 0 -17 9 -23
21 -15 28 1 66 40 98 l30 23 -50 55 c-36 41 -50 65 -52 92 -3 33 -6 36 -42 42
-22 4 -44 13 -50 20 -6 8 -25 22 -41 31 -40 22 -43 38 -8 38 17 0 33 -8 41
-20 7 -11 21 -20 32 -20 11 0 29 -5 40 -12 26 -16 33 -6 34 47 1 35 -3 47 -16
51 -20 6 -24 33 -5 35 17 2 20 1 41 -7 16 -6 18 -4 13 16 -7 26 16 60 40 60 7
0 13 6 13 14 0 7 15 25 33 39 50 39 97 85 97 95 0 5 -11 14 -25 20 -14 6 -25
18 -25 26 0 8 -11 28 -25 44 -14 17 -28 44 -31 61 -6 27 -3 32 20 41 15 5 38
10 52 10 16 0 24 6 25 18 1 16 2 16 6 0 5 -20 64 -25 107 -8 29 11 43 49 27
78 -12 23 -20 87 -12 99 3 4 12 8 20 8 8 0 15 6 17 13 1 7 0 8 -3 2 -8 -17
-20 -11 -26 11 -4 15 -11 20 -21 16 -9 -4 -16 -2 -16 3 0 15 23 24 54 22 l29
-3 -31 29 c-20 19 -32 42 -36 68 -4 21 -11 57 -17 79 -6 22 -13 61 -16 87 -5
50 -1 55 67 76 35 10 178 13 218 4 36 -8 43 -8 38 4 -3 7 -8 54 -12 104 -7
104 4 140 48 159 31 14 103 7 93 -10 -13 -21 28 -7 50 17 20 22 27 24 40 14 8
-7 13 -15 11 -19 -3 -4 -1 -13 5 -21 6 -10 9 -11 9 -2 0 6 11 12 25 12 14 0
24 -5 23 -12 -2 -7 8 -14 22 -16 79 -11 190 -74 190 -108 0 -7 8 -17 17 -23
16 -9 16 -11 0 -43 -33 -67 -57 -130 -51 -139 3 -5 34 -9 69 -9 37 0 67 -5 71
-12 5 -8 11 -5 20 7 17 23 25 16 17 -14 -3 -13 -11 -20 -19 -17 -19 7 -18 -60
0 -93 17 -30 30 -12 21 28 -5 25 -3 29 21 35 20 5 35 1 56 -14 15 -11 28 -19
28 -17 0 3 -18 51 -39 109 -78 207 -84 273 -47 487 20 111 18 226 -3 226 -8 0
-16 6 -19 14 -3 9 0 12 10 8 20 -7 37 25 46 88 l8 50 65 -1 c71 -2 113 -18
166 -64 17 -15 45 -36 62 -46 21 -13 31 -25 29 -39 -2 -14 3 -20 16 -20 44 0
24 -65 -26 -86 -19 -8 -27 -17 -23 -27 3 -8 0 -21 -7 -30 -11 -13 -10 -14 12
-8 51 15 110 18 110 6 0 -7 7 -9 15 -6 8 3 22 9 30 12 14 6 15 -3 11 -61 l-5
-67 29 27 c28 27 28 27 39 6 11 -20 16 -16 95 62 46 46 87 93 90 105 4 12 12
22 17 22 5 0 9 3 9 8 0 4 -26 6 -59 4 -34 -2 -77 3 -102 11 l-43 15 85 9 c89
9 149 0 149 -24 0 -18 8 -17 57 9 29 16 50 37 69 71 31 58 43 64 85 43 42 -21
52 -20 44 4 -8 25 21 28 51 5 18 -14 18 -15 -13 -27 -18 -7 -33 -16 -33 -20 0
-4 16 -19 36 -34 42 -33 74 -91 74 -136 0 -19 8 -50 18 -70 28 -55 30 -247 3
-291 -10 -18 -22 -51 -26 -74 -6 -39 -9 -43 -36 -43 -16 0 -37 -4 -47 -9 -9
-5 -35 -17 -57 -26 -122 -53 -139 -64 -189 -113 -36 -34 -54 -20 -62 49 -7 66
-14 75 -43 58 -15 -10 -24 -9 -45 4 -33 22 -43 22 -24 0 29 -33 51 -168 43
-263 -4 -47 -8 -112 -9 -145 l-1 -60 -35 4 c-75 8 -84 7 -88 -14 -8 -47 -12
-50 -38 -22 -32 35 -36 34 -28 -8 l6 -35 -32 30 c-25 24 -36 28 -46 19 -8 -6
-14 -18 -14 -25 0 -8 -6 -14 -14 -14 -12 0 -12 -7 -1 -51 8 -28 16 -53 18 -56
3 -2 1 -19 -3 -38 -4 -19 -4 -33 0 -30 5 3 11 1 15 -5 3 -5 4 -10 1 -10 -2 0
-11 -3 -20 -6 -12 -4 -21 5 -34 35 -33 73 -102 111 -102 55 0 -14 5 -34 10
-45 7 -11 7 -19 1 -19 -5 0 -11 5 -13 12 -3 7 -14 9 -32 4 -27 -7 -27 -8 -12
-31 15 -22 14 -24 -4 -30 -11 -4 -34 0 -50 8 -37 19 -44 10 -19 -22 10 -13 19
-20 19 -16 0 5 9 0 21 -11 12 -11 23 -14 27 -8 12 17 66 14 87 -4 12 -9 24
-26 29 -37 6 -16 9 -17 16 -5 6 8 10 22 10 31 0 32 70 69 145 78 l50 6 2 45
c4 66 20 198 22 175 3 -46 17 -50 60 -16 l40 32 62 -16 c91 -23 130 -5 69 32
-16 9 -30 21 -30 25 0 4 21 8 48 10 31 2 46 7 44 16 -1 6 5 12 13 12 8 0 15
-4 15 -10 0 -5 11 -10 25 -10 16 0 25 6 25 15 0 20 20 19 35 -2 7 -9 25 -17
41 -19 16 -2 47 -6 70 -10 29 -4 45 -2 53 7 15 18 87 129 131 201 28 48 37 57
56 52 13 -3 30 1 42 12 28 24 66 30 58 9 -5 -14 9 -20 42 -16 6 1 12 -7 12
-19 0 -19 4 -20 58 -14 31 3 70 10 86 15 20 6 32 6 37 -2 9 -15 -12 -82 -33
-103 -10 -10 -18 -29 -18 -43 0 -30 -28 -93 -42 -93 -5 0 -18 5 -29 10 -15 8
-19 7 -19 -4 0 -17 -15 -23 -85 -31 -154 -18 -154 -30 2 -39 89 -5 119 -3 125
6 6 10 10 10 18 -2 12 -19 13 -30 0 -30 -14 0 -33 -41 -23 -50 4 -4 21 -10 36
-14 23 -6 30 -3 34 13 3 11 18 25 34 32 19 7 28 17 25 25 -4 9 2 14 16 14 21
0 94 68 134 124 14 20 24 27 33 21 19 -11 7 -213 -16 -285 l-17 -53 39 -34
c44 -38 88 -43 148 -18 46 19 126 19 151 0 16 -12 23 -12 57 5 41 21 69 54 69
81 0 18 26 33 41 23 10 -6 4 -63 -12 -104 -6 -17 -18 -25 -35 -27 -15 0 -29
-5 -33 -11 -3 -5 -16 -12 -28 -16 -13 -4 -23 -11 -23 -16 0 -5 -12 -9 -27 -8
-16 1 -58 -6 -95 -16 -66 -17 -69 -17 -128 3 -33 12 -69 21 -79 21 -11 0 -23
5 -26 10 -4 6 -11 8 -16 5 -13 -9 -11 9 3 23 9 9 8 12 -7 12 -22 0 -55 -28
-55 -47 0 -7 -7 -13 -16 -13 -12 0 -15 5 -9 23 12 36 18 103 9 94 -5 -5 -9
-12 -9 -15 0 -4 -5 -14 -10 -22 -6 -8 -18 -49 -28 -90 -31 -131 -34 -144 -42
-172 -7 -27 -6 -28 28 -28 19 0 37 5 39 11 5 16 240 24 310 11 32 -6 76 -20
100 -32 51 -25 72 -26 64 -4 -5 13 -1 15 19 10 14 -4 25 -2 25 4 0 5 -4 10 -9
10 -5 0 -8 8 -7 18 1 13 -6 17 -29 15 -126 -8 -163 -6 -225 16 -62 22 -130 64
-130 79 0 4 4 13 9 21 7 12 19 7 59 -22 27 -19 72 -43 98 -53 48 -17 50 -17
139 9 50 14 110 29 135 32 61 10 78 20 94 59 14 34 22 39 83 51 36 7 44 4 99
-42 22 -17 50 -40 62 -50 17 -13 24 -30 25 -58 2 -38 4 -40 34 -41 21 0 41
-10 60 -28 25 -26 28 -26 40 -10 7 10 13 25 13 33 0 9 9 31 20 49 11 18 20 39
20 48 0 8 7 17 15 20 8 4 15 12 15 20 0 17 12 31 108 129 41 42 82 75 93 75
10 0 19 5 19 11 0 24 101 90 173 113 10 3 15 10 12 16 -3 6 4 10 17 10 13 0
41 9 63 20 22 11 56 20 77 20 25 0 41 5 44 15 4 10 20 15 47 15 41 0 42 13 2
23 -13 3 -9 5 12 6 17 0 34 -3 37 -8 4 -5 23 -5 47 0 22 5 44 7 49 4 5 -3 11
-1 15 4 3 6 13 7 22 4 9 -4 21 1 29 12 11 15 16 16 29 5 16 -13 18 -9 16 25
-1 12 1 16 6 9 4 -6 41 -10 81 -11 57 0 72 3 68 14 -3 7 -2 13 3 13 5 0 11 9
14 20 3 11 0 20 -6 20 -6 0 -7 3 -4 6 10 10 39 -18 33 -32 -5 -14 3 -26 15
-19 7 5 1 37 -16 78 -7 17 -6 18 14 5 20 -11 24 -11 38 7 15 19 15 19 11 -7
-4 -19 -1 -28 8 -28 8 0 14 5 14 10 0 6 7 10 15 10 9 0 15 10 15 26 0 22 -3
24 -22 19 -15 -4 -18 -3 -11 2 17 12 0 34 -45 61 l-33 19 27 6 c20 3 28 0 31
-14 6 -22 19 -25 26 -6 7 19 -13 49 -29 43 -8 -3 -14 -2 -14 2 0 10 -57 31
-64 24 -3 -3 2 -11 12 -18 30 -22 7 -26 -64 -11 -38 8 -72 10 -75 5 -7 -11
-57 -13 -88 -3 -20 7 -23 5 -18 -8 7 -18 -14 -22 -93 -17 -30 2 -32 0 -21 -14
12 -14 11 -16 -6 -16 -11 0 -23 -3 -27 -7 -8 -9 -39 -11 -133 -12 -60 -1 -83
-13 -45 -25 9 -3 -12 -3 -48 -1 -61 4 -63 4 -30 -7 34 -12 33 -13 -45 -18 -44
-3 -88 -10 -98 -14 -20 -10 -67 0 -67 14 0 13 -35 55 -89 108 l-45 43 22 45
c12 24 22 53 22 64 0 10 5 22 10 25 6 3 10 14 9 23 -1 19 -59 -95 -59 -115 0
-18 -39 -16 -46 2 -4 8 -18 15 -33 15 -14 0 -60 13 -101 29 -124 48 -317 108
-450 141 -69 17 -136 39 -150 49 -20 14 -38 17 -83 13 -36 -3 -57 -1 -57 6 0
15 36 25 63 16 12 -4 37 -8 55 -9 27 -2 32 1 32 22 0 16 -6 23 -19 23 -11 0
-23 5 -26 10 -4 6 -15 8 -26 5 -21 -7 -24 2 -9 25 6 9 10 10 10 3 0 -15 69 27
70 42 0 6 23 28 51 50 182 141 225 197 208 273 -6 30 -2 38 47 91 30 32 54 64
54 69 0 6 9 16 19 22 30 15 65 70 54 81 -6 6 -14 4 -23 -6 -7 -8 -18 -15 -24
-15 -9 0 -88 -65 -118 -98 -27 -29 -87 -101 -99 -119 -30 -44 -87 -80 -148
-93 -34 -7 -65 -18 -71 -25 -15 -17 -97 -11 -193 14 -59 16 -83 19 -98 10 -27
-14 -19 -33 15 -37 19 -2 26 -8 22 -17 -3 -8 -1 -17 4 -20 6 -4 10 -1 10 4 0
6 7 11 15 11 8 0 15 -4 15 -9 0 -16 -27 -31 -45 -24 -12 4 -16 3 -11 -5 3 -6
-3 -13 -15 -17 -27 -9 -39 4 -16 16 25 14 21 28 -10 39 -41 15 -73 29 -115 51
-60 31 -71 27 -66 -26 3 -25 4 -45 2 -45 -2 0 -19 14 -39 31 -34 30 -48 65
-22 56 6 -2 24 4 39 15 21 14 36 17 64 12 24 -4 39 -3 44 6 11 18 50 2 50 -21
0 -21 3 -22 38 -13 30 9 28 16 -12 38 -19 10 -61 43 -93 72 -47 44 -55 56 -43
64 20 13 20 13 60 -8 38 -20 101 -38 168 -47 41 -5 42 -4 32 15 -6 11 -15 20
-19 20 -8 0 -43 27 -131 98 -3 2 2 9 10 15 10 8 14 21 10 38 l-5 27 -75 -44
c-82 -48 -118 -57 -100 -25 7 15 6 23 -6 35 -14 15 -13 17 11 26 15 6 34 17
43 26 14 15 12 16 -34 13 -105 -5 -132 0 -168 31 -18 17 -37 42 -40 56 -4 14
-16 39 -28 54 -24 32 -19 80 9 80 15 0 15 1 -1 18 -15 18 -15 20 2 35 10 10
24 17 30 17 6 0 44 -32 83 -71 l73 -72 50 12 c28 7 61 17 74 24 18 8 28 8 42
-1 11 -7 30 -12 44 -12 26 0 53 24 37 34 -5 3 -7 15 -4 26 6 21 32 27 49 10
17 -17 69 -28 87 -18 31 17 18 28 -33 28 -48 0 -51 1 -57 30 -6 30 -6 30 -57
24 -54 -7 -168 -53 -198 -81 -10 -9 -18 -11 -18 -6 0 6 -11 13 -23 17 -13 3
-44 25 -69 48 -41 40 -45 47 -46 98 -3 70 6 110 24 110 19 0 18 17 -2 28 -9 5
-25 33 -35 62 -10 29 -26 61 -35 71 -11 12 -14 27 -10 43 4 16 1 26 -9 30 -15
5 -21 27 -7 25 18 -3 46 3 35 8 -14 5 -18 33 -5 33 4 0 18 -9 32 -20 34 -26
37 -26 57 17 24 49 39 51 53 9 11 -33 15 -36 50 -36 22 0 51 6 66 12 22 10 28
10 32 0 4 -12 11 -20 48 -51 10 -9 34 -14 56 -12 21 1 38 -3 38 -8 0 -5 -8
-10 -17 -11 -56 -3 -80 -6 -92 -14 -9 -6 -18 -4 -26 7 -7 10 -17 17 -24 17
-14 0 -15 17 -1 25 6 3 10 13 10 21 0 8 -4 14 -10 14 -5 0 -10 -7 -10 -15 0
-8 -7 -15 -16 -15 -12 0 -15 -7 -12 -24 4 -19 0 -26 -15 -28 -11 -2 -21 -11
-23 -21 -1 -11 0 -16 3 -13 3 3 11 -2 18 -11 14 -19 35 -9 35 16 0 10 9 21 20
24 11 3 20 2 20 -3 0 -14 51 -21 66 -9 8 6 14 8 14 5 0 -4 9 -2 20 4 17 9 20
8 20 -14 0 -29 56 -66 100 -66 23 0 33 8 54 44 14 25 26 49 26 54 0 5 20 31
45 56 49 52 59 78 20 52 -33 -22 -37 -20 -23 9 6 14 9 28 5 31 -3 3 -33 1 -66
-4 -60 -9 -62 -8 -67 15 -4 13 -4 34 -2 47 5 24 4 24 -19 9 -12 -8 -23 -18
-23 -22 0 -3 -11 -19 -24 -36 l-24 -29 -26 52 c-19 37 -32 52 -47 52 -25 0
-59 -18 -77 -39 -10 -12 -15 -13 -18 -3 -3 6 -16 12 -28 12 -13 0 -26 3 -30 7
-4 4 -15 8 -24 8 -10 0 -20 13 -27 35 -14 49 -27 68 -49 72 -15 2 -21 -5 -28
-29 -12 -45 -25 -49 -59 -17 -21 20 -29 24 -29 12 0 -18 -27 -32 -35 -18 -4 6
-15 10 -26 10 -14 0 -26 13 -39 43 -18 41 -19 41 -20 12 -1 -39 -32 -80 -54
-72 -12 5 -22 -2 -34 -24 -34 -62 -49 -75 -70 -62 -14 9 -22 9 -31 0 -29 -29
3 -48 106 -65 70 -12 113 -36 113 -62 0 -15 -6 -18 -27 -14 -15 3 -30 7 -35
10 -13 8 -10 -1 23 -72 33 -72 35 -90 24 -175 -6 -43 -11 -56 -23 -55 -40 6
-84 116 -86 216 -1 48 -4 56 -26 67 -37 18 -115 29 -106 15 3 -6 2 -13 -4 -17
-5 -3 -10 -19 -10 -35 0 -16 -5 -32 -11 -36 -6 -4 -9 -20 -6 -39 3 -17 1 -38
-3 -46 -6 -9 -3 -23 7 -39 26 -39 41 -51 78 -61 48 -14 46 -33 -2 -25 -103 18
-142 50 -167 136 -13 44 -13 54 1 89 16 40 13 71 -7 71 -7 0 -9 -8 -4 -22 6
-19 5 -20 -8 -8 -7 8 -20 30 -28 49 -7 18 -49 67 -93 110 -77 74 -107 115
-107 144 0 20 60 47 104 47 20 0 56 5 81 12 47 13 53 24 36 70 -25 69 -24 78
15 94 34 14 53 14 107 -2 14 -4 17 1 17 33 0 88 29 105 100 61z m160 -1047
c28 -40 47 -97 55 -167 10 -86 34 -176 51 -188 28 -21 71 -186 49 -186 -3 0
-18 11 -33 25 -15 14 -30 25 -35 25 -20 0 -97 44 -94 54 2 6 -3 29 -12 51 -15
38 -17 102 -12 310 1 28 -1 62 -5 78 -7 36 9 35 36 -2z m4679 -916 c51 -34
109 -114 171 -235 53 -105 58 -131 36 -194 -27 -77 -85 -64 -70 16 10 57 7 80
-15 98 -24 21 -41 54 -41 79 0 27 -60 141 -103 193 -18 24 -37 49 -41 56 -12
21 22 14 63 -13z m-3566 -291 c32 -8 87 -14 122 -14 68 0 165 -17 165 -29 0
-4 -5 -12 -10 -17 -8 -8 7 -16 47 -28 74 -22 213 -85 236 -108 25 -25 22 -34
-29 -86 -25 -26 -63 -74 -85 -107 -22 -33 -59 -73 -82 -89 -38 -26 -44 -27
-72 -16 -56 22 -60 22 -77 -10 l-18 -32 -29 24 c-17 13 -30 27 -30 31 -1 13
-40 61 -96 120 -52 53 -128 143 -133 156 -1 4 14 24 34 44 l37 37 -35 0 c-35
0 -36 1 -42 45 -5 28 -15 50 -28 59 -13 9 -18 21 -14 31 6 18 30 16 139 -11z
m482 -484 c4 -6 11 -8 16 -5 5 4 9 1 9 -4 0 -6 -8 -10 -17 -9 -38 3 -50 -3
-63 -29 -8 -16 -29 -47 -47 -70 -18 -23 -33 -45 -33 -49 0 -13 -61 -66 -68
-58 -4 3 -1 9 6 11 21 8 14 36 -8 30 -17 -4 -19 -2 -13 21 4 15 7 37 6 50 0
12 2 22 6 22 4 0 23 14 41 30 18 17 41 30 51 30 10 0 19 5 21 11 2 6 16 12 31
12 15 0 27 3 27 8 0 12 27 11 35 -1z m2917 -183 c11 -17 10 -39 -3 -75 -11
-33 -90 -88 -113 -79 -7 3 -21 32 -31 66 l-18 61 21 21 c12 11 27 17 32 14 6
-3 10 -1 10 6 0 15 92 2 102 -14z m-3988 -3032 c21 -7 58 -12 82 -11 24 1 48
0 53 -3 14 -9 16 -54 3 -78 -7 -13 -10 -23 -7 -23 3 0 -4 -9 -16 -21 -29 -29
-14 -38 51 -29 32 4 64 3 77 -3 32 -14 51 -3 46 27 -5 25 -3 26 36 26 30 0 41
4 41 15 0 8 8 15 18 15 30 0 62 -12 62 -23 0 -11 47 -57 59 -57 5 0 21 -24 36
-52 15 -29 36 -62 46 -74 10 -11 19 -28 19 -37 0 -9 4 -19 10 -22 5 -3 15 -15
21 -26 10 -20 9 -21 -143 -17 -84 1 -180 -2 -213 -7 -68 -12 -303 -1 -319 15
-6 6 -21 10 -35 10 -34 1 -97 33 -93 48 1 7 -4 12 -12 12 -20 0 -27 26 -20 71
6 38 8 39 48 40 l41 2 -40 7 -40 7 36 2 c25 1 42 -6 57 -22 12 -13 19 -26 16
-30 -3 -3 3 -3 14 0 14 3 21 15 24 41 3 21 2 39 -1 42 -32 25 -60 122 -47 156
7 18 40 17 90 -1z m1954 -1417 c87 -25 132 -62 132 -105 0 -17 9 -38 20 -48
17 -15 22 -16 36 -4 12 10 49 14 128 14 61 1 123 4 137 9 21 6 29 3 40 -16 23
-37 52 -127 45 -143 -3 -8 2 -34 10 -57 18 -50 12 -169 -12 -226 -19 -46 -19
-45 19 -38 30 6 38 2 84 -46 103 -106 103 -106 103 -165 0 -45 -7 -65 -42
-125 l-43 -70 -65 6 c-126 12 -437 17 -590 9 l-155 -8 -73 52 c-96 69 -157
156 -182 262 -15 64 -17 260 -3 270 6 3 16 24 24 46 18 53 26 63 70 84 l38 19
7 -54 c3 -29 3 -72 0 -96 -18 -115 -17 -138 3 -217 19 -79 77 -194 92 -185 4
2 10 18 14 34 4 19 17 36 35 45 26 14 30 13 66 -18 22 -17 58 -51 81 -75 31
-32 47 -42 61 -38 13 5 22 1 26 -10 4 -10 12 -14 22 -10 8 3 24 1 34 -4 10 -5
49 -14 87 -20 57 -8 70 -7 83 6 13 14 13 17 -7 34 -31 25 -29 30 9 19 59 -16
153 -11 179 10 21 17 22 22 11 41 -9 15 -10 25 -3 34 6 7 8 16 4 20 -4 3 -8
12 -9 19 -1 7 -11 28 -22 46 -24 40 -100 70 -174 71 -49 0 -57 7 -36 28 7 7 8
12 3 12 -6 0 -3 5 5 10 13 8 13 13 -3 43 -10 18 -15 40 -12 49 4 9 0 18 -9 21
-9 4 -16 14 -16 24 0 25 39 125 56 144 26 29 16 39 -41 39 -76 0 -141 -31
-150 -71 -10 -42 -43 -61 -94 -53 -23 4 -44 10 -46 14 -3 4 11 20 30 34 30 23
33 30 25 47 -6 10 -20 19 -31 19 -13 0 -18 4 -13 11 5 8 -1 10 -18 6 -30 -8
-42 10 -32 49 5 21 3 24 -20 24 -14 0 -26 -5 -26 -11 0 -8 -4 -8 -14 0 -11 9
-17 4 -30 -23 -25 -53 -6 -194 39 -288 28 -58 32 -74 24 -98 -8 -21 -19 -30
-45 -34 -19 -4 -38 -5 -43 -2 -4 3 -11 27 -15 53 -6 48 -12 69 -41 160 -21 65
-15 128 23 243 2 8 6 36 7 61 4 78 48 139 99 139 17 0 64 -10 104 -22z m-3698
-2990 c0 -12 -16 -41 -75 -138 -36 -59 -77 -101 -93 -95 -12 4 -13 -1 -9 -24
6 -29 6 -30 -13 -14 -10 9 -16 21 -13 26 3 6 -3 17 -13 25 -13 10 -15 16 -6
19 6 3 12 11 12 19 0 8 16 24 35 35 19 12 32 25 29 30 -3 5 2 18 10 30 8 12
12 28 9 35 -3 9 2 14 15 14 11 0 25 7 32 15 7 9 19 14 27 11 8 -3 16 1 19 9 7
18 34 20 34 3z"/>
<path d="M3900 10781 c-14 -5 -40 -15 -57 -24 -42 -22 -60 -22 -42 0 12 15 12
16 -4 10 -10 -4 -25 -7 -33 -7 -22 0 -16 -20 9 -29 20 -8 20 -10 4 -16 -13 -6
-17 -14 -13 -31 5 -18 3 -22 -9 -18 -10 4 -13 13 -10 25 10 30 -25 41 -76 23
-24 -8 -53 -22 -64 -30 -17 -13 -18 -16 -5 -24 21 -14 36 -12 50 5 20 24 49
18 62 -12 23 -52 59 -87 111 -105 28 -10 52 -18 53 -18 1 0 5 11 8 24 5 19 18
28 60 40 38 11 66 29 100 62 25 26 46 49 46 52 0 3 7 14 17 24 15 17 14 18
-39 18 -78 0 -183 -35 -222 -75 l-32 -32 -11 24 c-12 26 -7 30 114 100 38 22
30 28 -17 14z"/>
<path d="M1580 8733 c0 -6 5 -15 10 -18 6 -3 10 -19 10 -36 0 -18 5 -29 14
-29 8 0 16 -4 18 -9 4 -12 217 -121 237 -121 9 0 26 -7 38 -15 24 -17 40 -4
21 17 -23 24 -65 92 -79 128 -15 41 -29 53 -45 40 -6 -6 -13 -7 -17 -4 -3 3
-16 -1 -29 -10 -20 -13 -30 -13 -68 -2 -24 7 -46 18 -48 24 -2 7 -11 12 -19
12 -9 0 -22 8 -29 18 -7 9 -14 12 -14 5z"/>
<path d="M2938 8713 c-20 -19 -127 -36 -144 -22 -7 6 -21 6 -39 -1 -15 -6 -31
-8 -36 -4 -23 14 -18 -29 8 -75 19 -35 34 -51 48 -51 11 0 43 24 71 53 29 29
70 61 92 71 23 10 43 25 46 32 8 20 -26 18 -46 -3z"/>
<path d="M5705 8640 c6 -10 -28 -17 -137 -25 -80 -6 -148 -27 -148 -46 0 -6
-7 -8 -16 -5 -8 3 -12 2 -9 -3 3 -5 0 -13 -7 -18 -15 -9 -77 -33 -98 -37 -8
-2 -15 -9 -15 -17 -1 -23 -15 -38 -55 -59 -28 -14 -38 -25 -33 -36 5 -13 8
-13 15 -2 7 9 8 8 4 -5 -3 -10 -6 -23 -6 -28 0 -6 -9 -7 -20 -4 -16 5 -20 2
-20 -14 0 -12 -7 -21 -15 -21 -9 0 -15 -9 -15 -25 0 -18 -5 -25 -20 -25 -15 0
-22 -9 -27 -31 -4 -23 -14 -35 -35 -43 -15 -6 -28 -14 -28 -18 0 -4 -6 -8 -14
-8 -8 0 -17 -14 -21 -32 -9 -42 -22 -58 -47 -58 -17 0 -18 -5 -13 -44 4 -24 4
-54 0 -66 -6 -20 -12 -22 -53 -16 -25 3 -49 11 -53 17 -4 6 -12 10 -19 7 -9
-3 -3 -15 17 -35 18 -19 27 -36 23 -43 -4 -7 -5 -21 -3 -31 9 -34 -24 -59 -79
-59 -27 0 -57 4 -66 9 -9 4 -36 11 -59 15 l-43 6 0 -79 0 -80 57 -16 c33 -10
70 -14 89 -10 18 3 35 1 38 -4 7 -10 -84 -82 -128 -102 -31 -15 -39 -34 -20
-49 8 -7 14 -18 14 -26 0 -7 9 -18 19 -24 26 -14 31 -13 25 5 -4 9 2 18 16 23
12 4 20 12 19 17 -2 11 71 26 84 18 4 -2 7 1 7 6 0 6 11 11 25 11 16 0 23 4
19 13 -6 17 18 38 64 54 39 13 53 10 34 -9 -17 -17 -15 -28 7 -28 31 0 51 -11
51 -27 0 -9 6 -13 15 -10 8 4 17 2 20 -3 10 -17 106 -11 179 11 39 11 85 25
102 30 17 5 38 9 47 9 9 0 17 5 17 10 0 6 12 10 26 10 14 0 23 4 19 10 -3 6 5
10 19 10 13 0 32 8 42 17 13 13 19 14 22 5 5 -16 37 -15 51 2 7 8 24 17 39 21
15 4 35 13 44 22 13 12 21 12 39 2 17 -9 24 -9 27 0 2 6 12 11 22 11 9 0 23 7
30 15 7 8 18 15 24 14 7 0 6 -2 -1 -6 -7 -2 -13 -11 -13 -19 0 -16 23 -9 65
20 37 26 52 35 104 64 42 23 121 97 121 113 0 5 11 9 25 9 15 0 25 6 25 14 0
8 8 17 18 20 9 3 23 19 30 36 8 16 31 40 53 52 52 29 49 53 -11 88 -43 25 -72
71 -36 57 20 -8 20 11 1 37 -8 11 -15 30 -15 43 0 13 -4 23 -10 23 -5 0 -10
11 -10 24 0 13 -6 41 -14 63 -8 22 -12 52 -9 66 4 22 2 27 -16 27 -18 0 -21 6
-21 38 0 32 -5 41 -25 50 -14 6 -25 18 -25 27 0 8 -7 15 -15 15 -8 0 -15 4
-15 9 0 5 -14 12 -30 16 -17 4 -37 14 -46 22 -11 12 -42 17 -120 19 -62 2
-102 0 -99 -6z m175 -600 c0 -5 8 -10 18 -10 25 0 49 -20 57 -48 5 -19 2 -24
-24 -33 -17 -6 -33 -19 -36 -30 -8 -23 -70 -72 -96 -76 -16 -2 -19 3 -19 32 0
19 -9 50 -20 70 -26 47 -25 59 8 84 28 21 112 30 112 11z"/>
<path d="M2514 8610 c-5 -5 -20 -11 -34 -12 -39 -5 -56 -28 -51 -72 2 -22 9
-46 16 -53 7 -7 11 -21 9 -30 -6 -24 27 -75 65 -102 l30 -22 18 28 c14 22 17
44 15 113 -3 97 -10 142 -22 135 -4 -3 -10 2 -14 10 -6 17 -18 19 -32 5z"/>
<path d="M2840 8467 c0 -16 -14 -32 -50 -55 -55 -36 -78 -65 -86 -108 -3 -16
-10 -33 -15 -39 -7 -7 -8 -4 -4 8 7 17 -5 23 -19 10 -4 -5 -11 -8 -14 -8 -4 0
-37 -11 -74 -25 -77 -27 -80 -33 -39 -100 23 -38 32 -45 64 -48 20 -2 45 2 56
7 13 7 22 8 26 1 12 -20 53 -10 74 18 20 27 20 27 21 4 0 -13 -13 -37 -29 -53
-41 -41 -100 -40 -178 2 -32 17 -63 37 -69 45 -6 8 -15 14 -20 14 -5 0 -17 12
-25 26 -16 26 -16 26 -21 -39 -4 -46 -14 -80 -32 -111 -31 -53 -33 -66 -6 -59
11 3 20 13 20 23 0 21 49 80 66 80 7 0 18 -13 26 -30 7 -17 21 -30 30 -30 13
0 18 -8 18 -26 0 -15 4 -23 10 -19 17 11 40 -15 40 -46 0 -42 18 -44 37 -5 13
29 31 43 96 73 45 21 83 46 88 58 18 37 36 66 58 89 12 13 21 27 20 32 -4 13
33 84 43 84 4 0 8 5 8 10 0 14 27 41 63 63 15 10 27 21 27 26 0 12 -73 31 -98
25 -17 -5 -22 -2 -22 14 0 11 -7 25 -15 32 -8 7 -15 20 -15 29 -1 44 -60 72
-60 28z"/>
<path d="M1620 8473 c0 -5 5 -14 12 -21 9 -9 2 -12 -32 -14 -25 -1 -52 -2 -60
-4 -8 -1 -24 -3 -35 -4 -15 -1 -16 -3 -5 -7 8 -4 52 -23 98 -45 92 -42 122
-47 129 -20 3 14 12 17 39 14 38 -5 45 9 14 31 -12 8 -18 22 -16 34 4 17 -2
22 -32 27 -88 16 -112 18 -112 9z"/>
<path d="M1950 8465 c0 -8 4 -15 10 -15 5 0 13 -18 16 -40 4 -24 12 -40 20
-40 8 0 14 -4 14 -10 0 -14 -33 -13 -48 2 -15 15 -62 -26 -62 -54 0 -11 -7
-32 -15 -48 -15 -28 -15 -29 21 -40 32 -11 38 -10 55 9 24 26 24 36 -3 55 -32
23 -14 31 26 12 37 -18 82 -21 90 -7 4 5 -6 19 -21 30 -27 20 -27 20 -5 21 38
0 39 29 1 59 -18 14 -45 38 -60 54 -30 31 -39 34 -39 12z"/>
<path d="M3180 8131 c-36 -22 -69 -44 -75 -48 -5 -5 -29 -23 -52 -41 -35 -28
-41 -38 -38 -62 3 -25 -5 -38 -45 -79 -65 -64 -110 -77 -225 -64 -67 7 -88 6
-97 -4 -6 -7 -17 -13 -24 -13 -8 0 -14 -7 -14 -15 0 -8 -6 -15 -14 -15 -18 0
-28 -71 -12 -85 13 -11 11 -86 -4 -120 -4 -11 -14 -41 -21 -67 -11 -41 -18
-49 -53 -63 -23 -9 -79 -19 -126 -21 -47 -3 -100 -7 -118 -10 l-33 -5 37 -30
c20 -16 46 -29 57 -29 16 0 18 -3 9 -12 -9 -9 -7 -14 6 -24 15 -12 14 -13 -14
-14 -17 0 -37 7 -44 15 -17 21 -44 20 -36 -2 6 -15 5 -15 -13 1 -20 18 -21 18
-30 -8 -6 -14 -16 -26 -22 -26 -6 0 -9 -6 -6 -13 3 -7 -17 -27 -47 -48 -28
-19 -55 -45 -61 -57 -5 -12 -14 -22 -19 -22 -5 0 -39 -23 -77 -51 -37 -27 -79
-51 -94 -52 -17 -1 -31 -12 -43 -34 -82 -148 -286 -333 -368 -333 -14 0 -38
-7 -54 -15 -16 -9 -50 -18 -75 -22 -75 -10 -49 -38 43 -46 50 -5 52 -4 72 30
11 19 25 31 30 28 6 -4 19 3 28 16 15 18 22 20 39 11 16 -9 37 -4 109 24 49
20 96 39 106 44 12 7 20 3 30 -11 13 -20 16 -17 63 53 77 113 107 148 126 148
9 0 19 6 22 13 3 9 7 9 20 -1 9 -8 42 -14 77 -14 l60 -1 1 -91 c1 -50 4 -81 6
-70 2 12 13 30 24 40 17 16 22 16 29 4 7 -11 10 -6 10 18 0 17 5 32 10 32 12
0 5 58 -12 103 -8 20 -14 25 -21 18 -6 -6 -19 -11 -28 -11 -10 0 -19 -5 -21
-11 -2 -6 -14 10 -26 35 -13 25 -28 48 -33 52 -6 4 -2 15 11 29 12 13 28 40
35 61 7 21 18 40 23 42 6 2 20 -18 31 -44 21 -47 21 -47 42 -28 21 19 21 18
39 -4 12 -14 29 -22 48 -22 17 0 32 -6 36 -15 6 -17 91 -22 101 -5 3 5 12 7
20 3 22 -8 19 3 -23 66 -46 69 -58 115 -36 133 14 12 26 24 64 66 8 10 22 17
30 17 10 0 14 8 12 23 -1 13 3 31 9 40 10 16 10 15 5 0 -3 -10 -1 -18 4 -18 6
0 10 6 10 14 0 8 6 16 14 19 8 3 17 19 21 36 4 17 11 33 16 37 11 7 3 -54 -18
-141 -26 -103 -27 -125 -9 -125 16 0 20 11 16 39 -4 30 11 61 29 61 11 0 21
-6 24 -12 2 -7 7 -10 11 -6 4 3 -2 24 -14 47 -11 23 -16 41 -11 41 5 0 15 20
22 44 8 28 22 50 36 57 28 15 29 32 2 70 -23 33 -18 49 16 49 13 0 26 4 30 9
3 5 27 17 53 26 26 10 61 23 77 30 17 7 36 15 44 17 8 2 20 19 26 38 9 27 19
36 46 43 19 5 38 13 44 18 5 5 36 9 68 9 50 0 65 4 97 30 20 16 60 41 88 55
28 14 54 30 57 35 10 16 50 11 71 -7 32 -29 64 -80 64 -101 0 -12 5 -24 11
-28 8 -5 10 1 7 20 -5 23 -1 29 21 37 44 17 81 65 81 107 0 32 5 39 37 57 21
11 43 31 50 45 7 14 22 33 34 43 12 10 20 19 18 22 -5 5 -202 18 -240 16 -16
-1 -43 -17 -66 -39 -62 -60 -120 -107 -145 -119 -81 -39 -185 -61 -212 -46
-14 8 -7 19 45 69 88 85 87 84 96 84 9 0 53 54 53 65 0 13 -30 2 -90 -34z"/>
<path d="M1090 8135 c0 -8 4 -15 9 -15 5 0 16 -6 23 -14 8 -7 40 -35 72 -61
51 -41 66 -48 125 -56 36 -4 69 -8 73 -9 8 0 5 27 -4 36 -4 3 -57 28 -119 55
-61 27 -122 55 -135 64 -29 19 -44 19 -44 0z"/>
<path d="M2029 8122 c-9 -9 -24 -34 -34 -54 -16 -36 -35 -50 -35 -28 0 6 -9
20 -19 32 -22 23 -54 18 -45 -7 5 -11 -1 -15 -25 -15 -27 0 -36 8 -33 31 1 4
-17 10 -40 13 -60 10 -81 -29 -32 -60 15 -10 23 -23 19 -31 -3 -8 4 -28 16
-44 11 -16 15 -29 9 -29 -21 0 -73 32 -95 59 -20 23 -101 58 -111 48 -10 -10
30 -47 52 -47 13 0 24 -4 24 -10 0 -5 -4 -10 -10 -10 -5 0 -27 -16 -49 -35
-46 -42 -83 -46 -106 -11 -9 13 -29 29 -45 36 -25 10 -36 10 -67 -5 -20 -10
-48 -21 -62 -26 -16 -5 8 -7 66 -6 85 2 93 0 114 -22 18 -19 19 -25 8 -32 -11
-7 -9 -9 6 -10 91 -5 145 13 145 48 0 7 5 13 10 13 6 0 10 11 10 25 0 30 16
33 23 5 3 -11 13 -20 24 -20 10 0 30 -11 45 -25 15 -14 40 -28 55 -31 24 -5
30 -1 41 25 12 27 19 31 53 31 36 0 40 -3 46 -30 3 -16 9 -30 13 -30 12 0 20
29 10 35 -14 8 -12 45 1 45 6 0 9 -7 5 -15 -9 -24 5 -17 36 17 23 27 31 30 38
18 10 -17 12 -16 33 28 8 17 11 32 6 32 -5 0 -9 -4 -9 -10 0 -5 -10 -9 -22 -9
-13 1 -31 -2 -40 -6 -15 -6 -18 -2 -18 23 0 17 -4 34 -10 37 -15 9 -12 23 10
42 20 18 26 34 13 32 -5 0 -15 -8 -24 -17z"/>
<path d="M2250 7854 c-23 -59 -7 -89 41 -79 32 7 33 7 19 -11 -8 -11 -21 -23
-28 -27 -7 -5 -10 -12 -7 -17 3 -6 -9 -19 -26 -29 -25 -15 -29 -22 -18 -26 24
-9 18 -69 -11 -100 l-23 -25 21 0 c12 0 22 5 22 10 0 6 6 10 14 10 7 0 20 9
27 20 9 13 33 24 65 29 28 6 67 19 85 31 19 11 52 29 74 40 22 11 30 18 18 15
-15 -4 -31 4 -56 30 -19 20 -45 38 -57 40 -45 9 -56 16 -95 65 -22 27 -43 50
-48 50 -4 0 -12 -12 -17 -26z"/>
<path d="M995 7850 c-3 -5 -16 -10 -28 -10 -27 0 -48 -30 -40 -59 4 -16 10
-20 26 -15 17 5 19 3 13 -20 -6 -24 -4 -26 29 -26 20 0 55 10 78 22 23 12 55
24 70 27 49 10 36 25 -64 70 -50 23 -75 26 -84 11z"/>
<path d="M3975 7815 c-39 -33 -237 -130 -295 -145 -25 -7 -48 -14 -53 -17 -8
-5 177 -133 193 -133 6 0 10 4 10 9 0 5 12 12 28 16 15 3 34 12 42 20 8 7 38
18 67 25 41 11 53 19 58 37 8 32 -16 144 -32 150 -20 8 -15 23 6 23 30 0 51
11 51 26 0 22 -42 16 -75 -11z"/>
<path d="M7772 7786 c-8 -18 -8 -26 0 -28 9 -3 7 -20 -5 -59 -9 -30 -15 -67
-13 -84 2 -16 -2 -37 -9 -45 -7 -8 -20 -35 -28 -60 -11 -34 -21 -46 -38 -48
-13 -2 -28 -8 -33 -13 -6 -5 -21 -9 -34 -9 -17 0 -23 -4 -18 -15 3 -9 -11 -27
-41 -50 -46 -35 -63 -42 -63 -27 0 4 -27 9 -60 10 -52 2 -69 -2 -135 -37 -42
-22 -76 -42 -75 -45 1 -15 -55 -86 -65 -82 -6 2 -11 -4 -11 -15 1 -10 -3 -17
-7 -16 -10 2 -36 -42 -37 -61 0 -16 -60 -78 -60 -63 0 19 -22 12 -27 -9 -6
-22 -5 -22 -83 -26 -30 -1 -66 -4 -80 -5 -14 -1 -33 1 -44 6 -16 7 -17 5 -11
-16 23 -75 142 -136 247 -126 37 3 71 13 87 25 14 10 39 22 55 26 35 9 88 44
82 55 -6 8 30 42 37 35 2 -2 10 3 17 11 10 12 10 19 2 27 -9 9 -12 8 -12 -5 0
-9 -7 -17 -15 -17 -8 0 -15 5 -15 10 0 6 -7 10 -16 10 -31 0 -8 33 41 59 27
14 53 30 57 36 4 6 16 1 28 -13 11 -12 26 -22 33 -23 82 -6 96 -5 101 7 3 8
20 14 41 14 27 0 35 -4 35 -19 0 -16 6 -17 50 -13 29 3 50 0 50 -5 0 -16 48
-33 90 -33 22 0 39 -3 39 -7 -3 -20 2 -27 10 -14 13 20 44 -44 37 -75 -9 -33
-142 -118 -228 -144 -25 -8 -38 -18 -38 -29 0 -18 -71 -71 -95 -71 -16 0 -234
-213 -288 -281 -20 -25 -48 -66 -61 -90 -33 -62 -50 -93 -56 -99 -20 -20 -70
-101 -70 -114 0 -9 -4 -16 -10 -16 -5 0 -17 -15 -26 -32 -9 -18 -30 -49 -45
-69 -24 -31 -29 -46 -29 -92 0 -34 5 -59 13 -64 6 -4 88 -9 181 -9 141 -1 170
-4 178 -17 11 -21 62 -36 160 -48 100 -12 93 -12 198 -11 122 2 150 1 123 -5
-38 -7 -26 -23 17 -23 22 0 40 5 40 10 0 6 5 10 10 10 6 0 10 -7 10 -16 0 -15
9 -16 72 -10 40 4 77 11 82 16 6 6 19 10 31 10 11 1 38 9 60 20 22 11 46 19
53 20 20 0 76 31 85 46 4 8 14 14 21 14 8 0 19 7 26 15 7 8 20 15 29 15 9 0
43 25 75 55 41 40 65 55 85 55 25 0 32 9 67 80 35 71 42 80 67 80 24 0 27 4
27 33 0 18 4 37 9 43 6 5 4 30 -5 64 -8 30 -12 65 -9 78 3 12 1 22 -5 22 -5 0
-10 5 -10 12 0 6 -8 21 -18 32 -10 12 -27 48 -37 81 -11 33 -27 69 -37 81 -10
11 -18 31 -18 45 0 39 -11 69 -26 69 -7 0 -16 11 -20 25 -3 14 -15 30 -25 36
-11 5 -19 16 -19 24 0 8 -6 15 -13 15 -7 0 -23 14 -35 30 -13 17 -29 30 -37
30 -8 0 -15 7 -15 15 0 9 -9 15 -21 15 -14 0 -19 5 -16 14 4 11 -1 14 -21 13
-18 -1 -27 3 -27 13 0 8 -14 34 -32 57 -18 23 -33 44 -33 48 0 4 -9 14 -20 23
-12 10 -23 35 -27 57 -7 49 -20 67 -43 60 -14 -4 -19 8 -34 75 -9 44 -23 83
-31 87 -8 5 -16 34 -20 73 -6 62 -23 109 -63 175 -34 57 -77 119 -94 137 -10
10 -18 25 -18 33 0 8 -4 15 -10 15 -5 0 -10 -7 -10 -15 0 -8 -4 -15 -9 -15 -4
0 -6 11 -3 25 6 32 -2 32 -16 1z"/>
<path d="M1338 7684 c-50 -15 6 -34 101 -34 44 -1 52 -3 38 -11 -17 -10 -69
-8 -211 7 -59 6 -172 -11 -182 -27 -5 -9 -4 -10 36 -14 14 -2 50 -8 80 -13 31
-5 64 -6 77 -1 30 11 90 14 139 5 34 -6 55 -1 130 30 73 30 96 35 135 31 48
-6 129 -36 129 -49 0 -4 -13 -17 -30 -30 -48 -35 -38 -42 48 -34 42 5 91 9
109 11 17 2 37 6 43 10 7 4 13 -1 16 -12 8 -31 41 -45 89 -37 l44 6 -2 69 -2
69 -35 -6 c-19 -4 -44 -17 -55 -30 -11 -13 -31 -24 -45 -24 -74 -1 -93 1 -110
10 -10 6 -30 10 -44 10 -14 0 -26 5 -26 10 0 6 -6 10 -14 10 -7 0 -19 7 -26
15 -18 22 -81 37 -97 24 -8 -7 -39 -9 -85 -5 -133 11 -233 15 -250 10z"/>
<path d="M2740 7485 c0 -8 5 -14 12 -12 14 2 43 -83 53 -155 4 -28 15 -55 29
-70 13 -12 28 -32 34 -44 7 -14 44 -34 111 -58 54 -21 116 -49 136 -63 33 -22
39 -23 52 -10 13 13 13 20 2 51 -10 26 -22 39 -51 51 -21 8 -46 15 -56 16 -14
0 -14 2 3 8 18 7 18 9 -10 24 -17 8 -42 27 -57 42 -23 22 -28 24 -35 10 -12
-21 -38 0 -47 39 l-7 30 20 -25 c29 -35 26 -5 -5 48 -14 25 -24 46 -22 48 2 2
23 -5 47 -16 52 -23 162 -44 185 -36 10 4 16 18 16 36 0 30 18 41 67 41 36 0
73 18 67 33 -4 11 -16 12 -55 6 -28 -4 -56 -12 -62 -17 -18 -14 -211 -35 -246
-27 -37 8 -108 41 -116 55 -10 16 -65 12 -65 -5z"/>
<path d="M1821 7483 c-75 -4 -121 -23 -121 -50 0 -11 8 -12 35 -7 41 7 45 -5
15 -43 -15 -19 -17 -30 -9 -44 13 -25 19 -24 50 5 14 13 36 27 49 31 43 14
132 12 161 -2 16 -8 33 -12 39 -8 20 12 9 -6 -20 -35 -16 -16 -30 -31 -30 -33
0 -2 25 -3 56 -2 66 2 80 17 58 60 -8 15 -12 30 -10 33 3 2 26 6 52 8 53 3 75
17 57 35 -9 9 -19 9 -42 -1 -36 -15 -133 -6 -166 16 -12 8 -25 11 -29 7 -4 -4
-9 3 -13 15 -4 16 -12 21 -32 20 -14 -1 -59 -4 -100 -5z"/>
<path d="M4607 7419 c-21 -5 -54 -20 -75 -34 -20 -14 -40 -25 -45 -25 -5 0
-36 -11 -70 -24 -147 -56 -294 -69 -354 -30 -52 33 -92 52 -123 59 -32 7 -33
7 -25 -21 4 -16 13 -55 20 -86 13 -59 19 -67 115 -140 75 -57 113 -76 162 -83
41 -6 49 -5 55 11 9 24 85 104 98 104 6 0 16 10 23 21 11 18 21 20 51 16 30
-4 41 -1 52 14 7 11 23 19 36 19 14 0 28 11 40 30 9 17 23 30 29 30 7 0 16 9
19 20 3 11 11 20 17 20 6 0 8 9 5 20 -3 11 -1 20 4 20 4 0 6 6 3 14 -3 7 2 16
10 19 15 6 12 38 -3 36 -3 -1 -23 -5 -44 -10z"/>
<path d="M1355 7410 c-48 -5 -70 -14 -110 -45 -28 -21 -50 -43 -50 -49 0 -7
23 -10 69 -7 70 3 124 20 143 43 15 18 27 68 17 67 -5 -1 -36 -5 -69 -9z"/>
<path d="M1617 7253 c-12 -11 -8 -23 9 -23 9 0 12 -5 8 -12 -12 -20 -22 -98
-12 -98 5 0 20 7 33 16 13 9 28 13 34 10 5 -4 12 2 14 11 4 17 5 17 6 1 3 -47
44 -1 47 52 2 36 0 38 -35 44 -48 8 -96 8 -104 -1z"/>
<path d="M2640 7191 c0 -30 33 -187 41 -197 10 -12 15 -11 116 23 29 10 60 12
95 8 29 -4 64 -2 78 3 25 9 24 9 -15 30 -41 21 -85 57 -85 70 0 4 -24 8 -53 8
-65 1 -118 18 -142 44 -19 21 -35 26 -35 11z"/>
<path d="M2130 6688 c-6 -24 -18 -70 -27 -103 -19 -71 -88 -222 -106 -228 -7
-2 -10 -7 -7 -10 3 -3 28 5 56 18 40 19 55 33 69 65 13 28 23 39 33 35 12 -5
13 4 6 57 -5 35 -8 96 -7 136 1 39 0 72 -2 72 -2 0 -9 -19 -15 -42z"/>
</g>
</svg>
